<svg version="1.1" id="Layer_1" xmlns="http://www.w3.org/2000/svg" xmlns:xlink="http://www.w3.org/1999/xlink" x="0px" y="0px"
	 width="100%" viewBox="0 0 417 320" enable-background="new 0 0 417 320" xml:space="preserve">
<path fill="#000001" opacity="1.000000" stroke="none" 
	d="
M214.000000,321.000000 
	C142.690689,321.000000 71.881378,321.000000 1.036035,321.000000 
	C1.036035,214.393539 1.036035,107.787071 1.036035,1.090299 
	C139.892609,1.090299 278.785278,1.090299 417.838989,1.090299 
	C417.838989,107.666481 417.838989,214.333206 417.838989,321.000000 
	C350.120483,321.000000 282.310242,321.000000 214.000000,321.000000 
M282.213928,222.288666 
	C269.376129,209.680450 256.628540,196.978073 243.634460,184.533035 
	C240.548309,181.577271 240.776245,179.764648 243.656067,176.950119 
	C252.946838,167.869965 261.935852,158.481018 271.226990,149.401276 
	C273.959076,146.731369 275.039307,143.930496 274.997498,140.143906 
	C274.831848,125.149307 274.762268,110.148781 275.030609,95.157135 
	C275.115021,90.441872 273.863770,88.823761 268.928650,88.895760 
	C250.270416,89.167961 231.605774,88.999474 212.943527,88.998459 
	C185.783295,88.996994 158.622665,89.068535 131.463242,88.920212 
	C127.453400,88.898315 125.646614,89.875862 125.969826,94.179062 
	C126.280930,98.321037 126.304321,102.528862 125.950020,106.664574 
	C125.568726,111.115372 127.204308,112.350121 131.588501,112.309586 
	C153.581421,112.106262 175.577209,112.210579 197.571991,112.215256 
	C213.901428,112.218727 230.231720,112.328209 246.559692,112.178596 
	C250.512451,112.142380 251.918365,113.505081 251.676407,117.422066 
	C251.399536,121.904366 252.039047,126.475967 251.438278,130.894257 
	C251.026428,133.923264 249.888260,137.436508 247.853348,139.566284 
	C235.540771,152.452911 222.948349,165.076172 210.272064,177.608032 
	C207.575699,180.273712 207.683777,181.910233 210.317749,184.464233 
	C225.984680,199.655579 241.507553,214.995407 257.123901,230.239197 
	C258.274170,231.362076 259.761292,232.895966 261.121643,232.926910 
	C271.163544,233.155365 281.212982,233.050476 291.260071,233.050476 
	C291.522095,232.538101 291.784149,232.025726 292.046204,231.513336 
	C288.936432,228.604111 285.826660,225.694885 282.213928,222.288666 
M166.992630,210.485565 
	C173.746460,217.150543 180.479721,223.836639 187.275955,230.458130 
	C188.314102,231.469574 189.629272,232.896683 190.840179,232.920547 
	C200.910126,233.119003 210.985672,233.033096 222.063095,233.033096 
	C204.350143,215.283127 187.426239,198.323868 170.197113,181.058731 
	C184.803604,166.148697 198.799408,151.862015 212.795212,137.575348 
	C212.592880,137.120804 212.390549,136.666245 212.188217,136.211700 
	C203.446884,136.211700 194.693451,135.955383 185.971527,136.366852 
	C183.331268,136.491409 180.199356,137.861069 178.285965,139.696136 
	C170.239594,147.413162 162.583511,155.536346 154.747437,163.474213 
	C153.435211,164.803497 151.939362,165.951523 149.599380,167.994263 
	C149.443573,165.077026 149.293259,163.483582 149.284805,161.889374 
	C149.251236,155.562378 149.270447,149.235107 149.253998,142.907974 
	C149.236633,136.230576 149.228622,136.227661 142.806259,136.215439 
	C139.143188,136.208481 135.450211,136.507156 131.824387,136.139236 
	C127.070709,135.656845 125.922707,137.633850 125.950935,142.104980 
	C126.122276,169.244110 126.041397,196.384842 126.044464,223.525040 
	C126.044708,225.689438 125.778023,227.900513 126.147896,229.999573 
	C126.348236,231.136536 127.601135,232.948059 128.432434,232.977997 
	C135.187317,233.221191 141.954788,233.114700 149.266708,233.114700 
	C149.266708,226.276840 149.266708,220.138733 149.266708,214.000626 
	C149.266708,207.803299 149.266708,201.605957 149.266708,195.408630 
	C149.863968,195.201614 150.461212,194.994614 151.058472,194.787598 
	C156.202606,199.855240 161.346741,204.922882 166.992630,210.485565 
z"/>
<path fill="#16B1AA" opacity="1.000000" stroke="none" 
	d="
M282.465393,222.537155 
	C285.826660,225.694885 288.936432,228.604111 292.046204,231.513336 
	C291.784149,232.025726 291.522095,232.538101 291.260071,233.050476 
	C281.212982,233.050476 271.163544,233.155365 261.121643,232.926910 
	C259.761292,232.895966 258.274170,231.362076 257.123901,230.239197 
	C241.507553,214.995407 225.984680,199.655579 210.317749,184.464233 
	C207.683777,181.910233 207.575699,180.273712 210.272064,177.608032 
	C222.948349,165.076172 235.540771,152.452911 247.853348,139.566284 
	C249.888260,137.436508 251.026428,133.923264 251.438278,130.894257 
	C252.039047,126.475967 251.399536,121.904366 251.676407,117.422066 
	C251.918365,113.505081 250.512451,112.142380 246.559692,112.178596 
	C230.231720,112.328209 213.901428,112.218727 197.571991,112.215256 
	C175.577209,112.210579 153.581421,112.106262 131.588501,112.309586 
	C127.204308,112.350121 125.568726,111.115372 125.950020,106.664574 
	C126.304321,102.528862 126.280930,98.321037 125.969826,94.179062 
	C125.646614,89.875862 127.453400,88.898315 131.463242,88.920212 
	C158.622665,89.068535 185.783295,88.996994 212.943527,88.998459 
	C231.605774,88.999474 250.270416,89.167961 268.928650,88.895760 
	C273.863770,88.823761 275.115021,90.441872 275.030609,95.157135 
	C274.762268,110.148781 274.831848,125.149307 274.997498,140.143906 
	C275.039307,143.930496 273.959076,146.731369 271.226990,149.401276 
	C261.935852,158.481018 252.946838,167.869965 243.656067,176.950119 
	C240.776245,179.764648 240.548309,181.577271 243.634460,184.533035 
	C256.628540,196.978073 269.376129,209.680450 282.465393,222.537155 
z"/>
<path fill="#15B0AA" opacity="1.000000" stroke="none" 
	d="
M166.741760,210.238037 
	C161.346741,204.922882 156.202606,199.855240 151.058472,194.787598 
	C150.461212,194.994614 149.863968,195.201614 149.266708,195.408630 
	C149.266708,201.605957 149.266708,207.803299 149.266708,214.000626 
	C149.266708,220.138733 149.266708,226.276840 149.266708,233.114700 
	C141.954788,233.114700 135.187317,233.221191 128.432434,232.977997 
	C127.601135,232.948059 126.348236,231.136536 126.147896,229.999573 
	C125.778023,227.900513 126.044708,225.689438 126.044464,223.525040 
	C126.041397,196.384842 126.122276,169.244110 125.950935,142.104980 
	C125.922707,137.633850 127.070709,135.656845 131.824387,136.139236 
	C135.450211,136.507156 139.143188,136.208481 142.806259,136.215439 
	C149.228622,136.227661 149.236633,136.230576 149.253998,142.907974 
	C149.270447,149.235107 149.251236,155.562378 149.284805,161.889374 
	C149.293259,163.483582 149.443573,165.077026 149.599380,167.994263 
	C151.939362,165.951523 153.435211,164.803497 154.747437,163.474213 
	C162.583511,155.536346 170.239594,147.413162 178.285965,139.696136 
	C180.199356,137.861069 183.331268,136.491409 185.971527,136.366852 
	C194.693451,135.955383 203.446884,136.211700 212.188217,136.211700 
	C212.390549,136.666245 212.592880,137.120804 212.795212,137.575348 
	C198.799408,151.862015 184.803604,166.148697 170.197113,181.058731 
	C187.426239,198.323868 204.350143,215.283127 222.063095,233.033096 
	C210.985672,233.033096 200.910126,233.119003 190.840179,232.920547 
	C189.629272,232.896683 188.314102,231.469574 187.275955,230.458130 
	C180.479721,223.836639 173.746460,217.150543 166.741760,210.238037 
z"/>
</svg>